<svg xmlns="http://www.w3.org/2000/svg" width="52.151" height="52.263" viewBox="0 0 52.151 52.263">
  <g id="Group_38" data-name="Group 38" transform="translate(-720.495 -300.479)">
    <g id="Group_37" data-name="Group 37" transform="translate(721.137 301.128)">
      <path id="Path_81" data-name="Path 81" d="M747.527,353.24c-1.691-1.109-3.387-2.21-5.069-3.332a1.645,1.645,0,0,0-1.106-.3c-1.837.131-3.678.215-5.517.323a1.259,1.259,0,0,1-1.3-.792q-1.251-2.515-2.545-5.009a1.422,1.422,0,0,0-.567-.571q-2.469-1.287-4.966-2.52a1.331,1.331,0,0,1-.842-1.419q.182-2.807.3-5.617a1.42,1.42,0,0,0-.21-.779c-.975-1.522-1.951-3.045-2.98-4.531a1.5,1.5,0,0,1,.016-1.945c1.031-1.484,2.011-3,2.991-4.524a1.324,1.324,0,0,0,.2-.732c-.083-1.84-.175-3.68-.307-5.517a1.448,1.448,0,0,1,.91-1.582c1.641-.795,3.264-1.626,4.881-2.469a1.507,1.507,0,0,0,.6-.605c.842-1.617,1.655-3.249,2.478-4.876.406-.8.672-.945,1.578-.891,1.872.111,3.744.222,5.617.313a1.074,1.074,0,0,0,.589-.188c1.571-1.023,3.141-2.047,4.691-3.1a1.339,1.339,0,0,1,1.689,0q2.3,1.566,4.651,3.07a1.408,1.408,0,0,0,.776.206c1.907-.083,3.812-.192,5.717-.3a1.235,1.235,0,0,1,1.275.759c.846,1.69,1.7,3.378,2.567,5.054a1.42,1.42,0,0,0,.571.567c1.647.857,3.308,1.686,4.962,2.528a1.234,1.234,0,0,1,.826,1.467c-.117,1.888-.228,3.777-.318,5.666a1.164,1.164,0,0,0,.2.634c1,1.546,2.006,3.088,3.032,4.617a1.442,1.442,0,0,1,.008,1.787c-1.012,1.5-1.988,3.021-3,4.518a1.526,1.526,0,0,0-.265,1.02c.114,1.822.2,3.646.315,5.467a1.3,1.3,0,0,1-.8,1.391q-2.52,1.243-5.011,2.542a1.335,1.335,0,0,0-.537.535q-1.295,2.493-2.541,5.011a1.33,1.33,0,0,1-1.434.818c-1.9-.128-3.81-.231-5.716-.33a.9.9,0,0,0-.506.135c-1.772,1.161-3.536,2.334-5.3,3.5Zm8.7-5.641v0c.911.052,1.823.09,2.733.163a.569.569,0,0,0,.644-.385c.752-1.532,1.539-3.047,2.3-4.577a2.006,2.006,0,0,1,.956-.961c1.5-.738,2.982-1.523,4.492-2.244a.75.75,0,0,0,.481-.878c-.117-1.688-.189-3.38-.3-5.069a1.929,1.929,0,0,1,.356-1.257c.945-1.4,1.855-2.829,2.812-4.224a.648.648,0,0,0-.015-.868c-.931-1.372-1.824-2.77-2.754-4.144a2.126,2.126,0,0,1-.4-1.4c.109-1.656.172-3.314.294-4.969a.783.783,0,0,0-.5-.914c-1.495-.715-2.96-1.491-4.448-2.221a2.072,2.072,0,0,1-.99-1c-.725-1.472-1.494-2.922-2.2-4.4a.818.818,0,0,0-.95-.535c-1.671.125-3.346.193-5.018.3a1.93,1.93,0,0,1-1.256-.361c-1.417-.954-2.855-1.877-4.268-2.836a.594.594,0,0,0-.787.008c-1.415.956-2.85,1.883-4.267,2.837a1.942,1.942,0,0,1-1.261.351c-1.739-.109-3.479-.191-5.218-.3a.569.569,0,0,0-.644.376c-.76,1.547-1.555,3.076-2.32,4.621a1.938,1.938,0,0,1-.927.921c-1.545.764-3.075,1.558-4.621,2.32a.541.541,0,0,0-.359.606c.11,1.722.19,3.446.3,5.168a2.055,2.055,0,0,1-.365,1.354c-.957,1.415-1.877,2.855-2.837,4.268a.594.594,0,0,0,.01.789c.9,1.332,1.755,2.7,2.677,4.015a2.829,2.829,0,0,1,.5,1.961c-.124,1.588-.18,3.18-.284,4.77a.568.568,0,0,0,.374.646c1.549.755,3.08,1.548,4.627,2.308a1.928,1.928,0,0,1,.922.926c.747,1.516,1.531,3.014,2.268,4.535a.7.7,0,0,0,.8.447c1.722-.115,3.445-.222,5.169-.28a2.073,2.073,0,0,1,1.108.312c1.444.911,2.866,1.86,4.279,2.82a.686.686,0,0,0,.914.015c1.4-.955,2.8-1.9,4.238-2.79a2.564,2.564,0,0,1,1.248-.349C754.568,347.463,755.4,347.554,756.226,347.6Z" transform="translate(-722.373 -302.276)" fill="#484848" stroke="#fff" stroke-width="1.3"/>
      <path id="Path_83" data-name="Path 83" d="M811.9,408.07a15.874,15.874,0,1,1,15.862,15.886A15.907,15.907,0,0,1,811.9,408.07Zm29.636,0a13.749,13.749,0,1,0-13.739,13.76A13.788,13.788,0,0,0,841.54,408.073Z" transform="translate(-802.348 -382.621)" fill="#484848" stroke="#fff" stroke-width="1.3"/>
      <path id="Path_85" data-name="Path 85" d="M896.447,501.295l3.563-3.361c1.242-1.172,2.473-2.357,3.735-3.507a1.887,1.887,0,0,1,.907-.432.794.794,0,0,1,.91.54,2.186,2.186,0,0,1-.033,1.03c-.035.168-.235.312-.379.447q-3.941,3.724-7.888,7.442c-.824.776-1.306.758-2.1-.062q-1.927-1.978-3.851-3.958a2.793,2.793,0,0,1-.4-.5,1.033,1.033,0,0,1,1.41-1.4,3.69,3.69,0,0,1,.528.448C894.027,499.068,895.211,500.158,896.447,501.295Z" transform="translate(-872.792 -473.52)" fill="#484848" stroke="#fff" stroke-width="1.3"/>
    </g>
  </g>
</svg>
