<svg xmlns="http://www.w3.org/2000/svg" width="52.247" height="50.46" viewBox="0 0 52.247 50.46">
  <g id="Group_40" data-name="Group 40" transform="translate(-803.219 -388.176)">
    <g id="Group_39" data-name="Group 39" transform="translate(803.569 388.526)">
      <path id="Path_87" data-name="Path 87" d="M883.4,401.61a6.451,6.451,0,0,1-.775.606c-.99.563-2,1.085-2.992,1.652a1.64,1.64,0,0,0-.581.58c-.6,1.047-1.162,2.114-1.745,3.17-.412.746-.869.81-1.464.218-.38-.379-.75-.768-1.14-1.137a.939.939,0,0,1-.28-1.086c.222-.649.413-1.309.6-1.97.04-.142.058-.375-.023-.453-.97-.944-1.96-1.866-2.987-2.834-.434.781-.857,1.5-1.226,2.245-.065.131.047.408.158.559A17.882,17.882,0,0,1,873.792,409a18.179,18.179,0,0,1-2.1,14.877,17.939,17.939,0,0,1-9.113,7.5,17.585,17.585,0,0,1-9.936.885,17.926,17.926,0,0,1-13.94-11.7,17.659,17.659,0,0,1,1.692-16.372,18.461,18.461,0,0,1,25.406-5.8c.3.185.593.375.954.6.277-.9.553-1.769.794-2.642.03-.108-.1-.3-.2-.4q-1.515-1.507-3.051-2.992a1.363,1.363,0,0,0-.435-.229c-.324-.134-.665-.233-.979-.388a.7.7,0,0,1-.376-.891.714.714,0,0,1,.8-.542c.149.012.3.043.413.061a9.313,9.313,0,0,1,.758-1.348,2.658,2.658,0,0,1,4.165-.176c.8.835,1.607,1.668,2.37,2.537a.808.808,0,0,0,1,.254c2.477-.772,4.968-1.5,7.444-2.28a1.17,1.17,0,0,1,1.387.359c.433.488.921.929,1.38,1.394.6.61.542,1.1-.2,1.521q-2.917,1.633-5.841,3.251c-.174.1-.346.2-.583.338.211.226.4.427.587.628.691.732,1.389,1.457,2.069,2.2a.525.525,0,0,0,.651.18c.631-.222,1.282-.386,1.92-.592a.967.967,0,0,1,1.134.281c.475.539.971,1.06,1.458,1.589Zm-23.844-4.268a1.944,1.944,0,0,0,.034.252c.072.113.148.224.219.337a4.952,4.952,0,0,1,.588,4.375,8.728,8.728,0,0,1-2.288,3.563c-1.952,1.864-3.99,3.638-5.95,5.494a11.669,11.669,0,0,0-1.653,2.007,1.329,1.329,0,0,0,.249,1.825,3.47,3.47,0,0,0,.786.619c.7.388,1.451.7,2.14,1.109A14.87,14.87,0,0,1,856,418.5a1.426,1.426,0,0,1-.56,2.509,5.847,5.847,0,0,1-.716.233,10.425,10.425,0,0,1-8.341-1.384c-1.472-.947-2.789-2.137-4.175-3.218-.739-.576-1.467-1.167-2.223-1.72a3.087,3.087,0,0,0-.777-.285c.348,11.136,11.1,18.317,20.586,15.854,0-.7-.058-1.41.011-2.1a8.012,8.012,0,0,1,2.6-4.818c1.294-1.311,2.728-2.484,4.034-3.784a7.8,7.8,0,0,0,2.514-4.907,3.715,3.715,0,0,1,1-2.619,18.309,18.309,0,0,1,2.22-1.621c.325-.211.438-.381.3-.754-.3-.85-.509-1.743-.879-2.562-.478-1.059-1.077-2.063-1.674-3.184-.551.992-1.016,1.845-1.5,2.689-.369.648-.854.717-1.377.209-.541-.526-1.068-1.068-1.62-1.583a.992.992,0,0,1-.283-1.134c.363-1.15.694-2.31,1.058-3.459.08-.253.046-.4-.182-.534-1.015-.584-1.99-1.252-3.049-1.741S860.756,397.767,859.56,397.342Zm-4.766,22.267.093-.217c-.669-.391-1.33-.794-2.007-1.169-.878-.486-1.811-.885-2.643-1.437a2.865,2.865,0,0,1-1.5-3.045,4.132,4.132,0,0,1,1.112-2.163c1.1-1.122,2.241-2.214,3.413-3.263a33.85,33.85,0,0,0,4.509-4.366,4.69,4.69,0,0,0,1.191-3.763,5.237,5.237,0,0,0-1.731-2.876.669.669,0,0,0-.4-.142,16.831,16.831,0,0,0-17.117,12.676c-.273,1.041-.387,2.125-.58,3.224a4.457,4.457,0,0,1,2.544,1.126c1.108.923,2.2,1.867,3.3,2.794a13,13,0,0,0,4.446,2.586A8.92,8.92,0,0,0,854.794,419.609Zm25.793-27.294c-.589-.857-.641-.876-1.546-.6-2.437.736-4.877,1.462-7.308,2.216a1.109,1.109,0,0,1-1.3-.339c-.938-1.029-1.911-2.025-2.865-3.04a1.166,1.166,0,0,0-1.065-.439,1.392,1.392,0,0,0-1.13.954,1.058,1.058,0,0,0,.336,1.226c.948.9,1.877,1.827,2.867,2.68a1.467,1.467,0,0,1,.487,1.8c-.8,2.452-1.511,4.931-2.272,7.4a.565.565,0,0,0,.176.7,3.982,3.982,0,0,1,.47.582c.174-.295.27-.449.358-.608q1.657-2.962,3.312-5.924c.369-.66.826-.747,1.374-.237,1.327,1.234,2.638,2.485,3.965,3.718a.936.936,0,0,1,.277,1.046c-.2.657-.378,1.321-.6,1.97a.519.519,0,0,0,.308.749c.476-.872.973-1.727,1.412-2.61a1.965,1.965,0,0,1,.926-.933c.887-.449,1.75-.945,2.637-1.429-.373-.405-.373-.408-.807-.277-.642.193-1.284.381-1.922.586a.946.946,0,0,1-1.082-.3c-1.229-1.331-2.475-2.647-3.708-3.975a.762.762,0,0,1,.185-1.326c.505-.3,1.027-.566,1.541-.849Zm-19.24,37.78A16.762,16.762,0,0,0,872.8,411.988c-1.221.65-2.215,1.437-2.325,2.968a7.7,7.7,0,0,1-2.009,4.775c-1.2,1.3-2.49,2.526-3.8,3.725a14.208,14.208,0,0,0-2.6,2.981A5.22,5.22,0,0,0,861.348,430.094Z" transform="translate(-831.856 -388.526)" fill="#484848" stroke="#fff" stroke-width="0.7"/>
      <path id="Path_88" data-name="Path 88" d="M1087.977,540.184c.028-.417.039-.837.088-1.252a.727.727,0,0,1,.819-.7.7.7,0,0,1,.718.747c-.006.785-.037,1.572-.1,2.355a.77.77,0,0,1-1.534-.1c-.01-.351,0-.7,0-1.054Z" transform="translate(-1041.168 -513.601)" fill="#484848" stroke="#fff" stroke-width="0.7"/>
      <path id="Path_89" data-name="Path 89" d="M909.219,677.835c-.643-.17-1.474-.353-2.278-.617a.667.667,0,0,1-.4-.908.7.7,0,0,1,.852-.523c.752.149,1.5.327,2.245.5a.736.736,0,0,1,.612.845C910.217,677.55,909.868,677.823,909.219,677.835Z" transform="translate(-889.556 -628.509)" fill="#484848" stroke="#fff" stroke-width="0.7"/>
      <path id="Path_90" data-name="Path 90" d="M921.108,397.064c.721-.019,1.059.22,1.129.646a.786.786,0,0,1-.732.9c-.706.124-1.419.222-2.132.3a.731.731,0,0,1-.864-.641.749.749,0,0,1,.627-.883C919.856,397.245,920.585,397.147,921.108,397.064Z" transform="translate(-899.591 -395.658)" fill="#484848" stroke="#fff" stroke-width="0.7"/>
      <path id="Path_91" data-name="Path 91" d="M804.823,510.342c.093-.506.2-1.234.365-1.951a.754.754,0,0,1,.9-.6.786.786,0,0,1,.607.947c-.11.677-.227,1.352-.356,2.026-.1.543-.428.81-.881.76S804.78,511.125,804.823,510.342Z" transform="translate(-804.612 -488.155)" fill="#484848" stroke="#fff" stroke-width="0.7"/>
      <path id="Path_92" data-name="Path 92" d="M957.3,398.234c-.659-.082-1.393-.153-2.118-.272a.717.717,0,0,1-.637-.863.71.71,0,0,1,.8-.659c.75.051,1.5.124,2.245.23a.774.774,0,0,1,.677.856C958.217,397.945,957.859,398.227,957.3,398.234Z" transform="translate(-929.693 -395.136)" fill="#484848" stroke="#fff" stroke-width="0.7"/>
      <path id="Path_93" data-name="Path 93" d="M886.046,407.291c-.233-.223-.559-.4-.622-.637s.041-.726.22-.819a18.6,18.6,0,0,1,2.425-1.027.583.583,0,0,1,.768.463c.045.27-.025.74-.2.835C887.839,406.541,886.985,406.875,886.046,407.291Z" transform="translate(-871.94 -402.102)" fill="#484848" stroke="#fff" stroke-width="0.7"/>
      <path id="Path_94" data-name="Path 94" d="M1012.283,662.15c-.295-.269-.625-.433-.7-.674a.928.928,0,0,1,.2-.828,13.457,13.457,0,0,1,2.125-1.217.887.887,0,0,1,.812.244c.15.194.185.744.051.845C1014.008,661.093,1013.177,661.579,1012.283,662.15Z" transform="translate(-977.34 -614.835)" fill="#484848" stroke="#fff" stroke-width="0.7"/>
      <path id="Path_95" data-name="Path 95" d="M803.57,545.23c-.014-.843.208-1.232.744-1.273s.826.366.877,1.217c.032.519.092,1.036.112,1.555a.8.8,0,0,1-.714.923.81.81,0,0,1-.831-.773C803.678,546.331,803.631,545.779,803.57,545.23Z" transform="translate(-803.569 -518.381)" fill="#484848" stroke="#fff" stroke-width="0.7"/>
      <path id="Path_96" data-name="Path 96" d="M943.836,682.576c-.336,0-.673.02-1.006,0a.773.773,0,0,1-.769-.778.734.734,0,0,1,.715-.77c.769-.045,1.542-.06,2.312-.036a.679.679,0,0,1,.658.7.694.694,0,0,1-.608.8c-.428.071-.867.074-1.3.107Z" transform="translate(-919.274 -632.858)" fill="#484848" stroke="#fff" stroke-width="0.7"/>
      <path id="Path_97" data-name="Path 97" d="M810.338,579.2c.112.109.412.276.52.527a21.044,21.044,0,0,1,.718,2.035.778.778,0,0,1-1.451.555,22.735,22.735,0,0,1-.747-2.184C809.236,579.629,809.63,579.2,810.338,579.2Z" transform="translate(-808.399 -547.83)" fill="#484848" stroke="#fff" stroke-width="0.7"/>
      <path id="Path_98" data-name="Path 98" d="M846.762,639.378a5.121,5.121,0,0,1,.7.412c.472.4.925.818,1.381,1.234a.813.813,0,0,1,.179,1.188.781.781,0,0,1-1.2,0,13.769,13.769,0,0,1-1.5-1.391,1.155,1.155,0,0,1-.171-.9C846.2,639.716,846.531,639.572,846.762,639.378Z" transform="translate(-839.124 -598.105)" fill="#484848" stroke="#fff" stroke-width="0.7"/>
      <path id="Path_99" data-name="Path 99" d="M1043.766,637.382a3.874,3.874,0,0,1-.4.668c-.449.472-.916.929-1.4,1.37a.8.8,0,0,1-1.165.03.781.781,0,0,1,.082-1.16,16.592,16.592,0,0,1,1.448-1.385,1.067,1.067,0,0,1,.854-.154C1043.418,636.822,1043.567,637.149,1043.766,637.382Z" transform="translate(-1001.588 -595.883)" fill="#484848" stroke="#fff" stroke-width="0.7"/>
      <path id="Path_100" data-name="Path 100" d="M831.358,448.131c-.682.013-1.11-.625-.782-1.12a17.45,17.45,0,0,1,1.518-1.917.665.665,0,0,1,.956-.018.681.681,0,0,1,.2.977c-.464.65-.979,1.265-1.5,1.875A1.015,1.015,0,0,1,831.358,448.131Z" transform="translate(-826.038 -435.61)" fill="#484848" stroke="#fff" stroke-width="0.7"/>
      <path id="Path_101" data-name="Path 101" d="M876.573,664.379a2.772,2.772,0,0,1-.423-.141c-.578-.3-1.156-.6-1.723-.922a.79.79,0,1,1,.735-1.386c.61.31,1.212.638,1.807.976a.677.677,0,0,1,.347.895c-.121.262-.414.445-.63.662Z" transform="translate(-862.342 -616.839)" fill="#484848" stroke="#fff" stroke-width="0.7"/>
      <path id="Path_102" data-name="Path 102" d="M824.759,611.873a1.941,1.941,0,0,1,.506.389c.4.535.76,1.1,1.112,1.664a.782.782,0,1,1-1.291.877c-.4-.555-.786-1.121-1.13-1.711A.8.8,0,0,1,824.759,611.873Z" transform="translate(-820.496 -575.126)" fill="#484848" stroke="#fff" stroke-width="0.7"/>
      <path id="Path_103" data-name="Path 103" d="M814.411,478.157c-.647,0-1.064-.5-.888-.969a20.839,20.839,0,0,1,.956-2.155.709.709,0,0,1,1-.305.729.729,0,0,1,.378.979,20.049,20.049,0,0,1-.913,2.011C814.823,477.936,814.53,478.062,814.411,478.157Z" transform="translate(-811.851 -460.466)" fill="#484848" stroke="#fff" stroke-width="0.7"/>
      <path id="Path_104" data-name="Path 104" d="M1081.274,577.861c-.715,0-1.1-.444-.964-.945.188-.709.406-1.412.648-2.1a.74.74,0,0,1,.969-.483.772.772,0,0,1,.5.962,18.929,18.929,0,0,1-.632,2C1081.689,577.559,1081.386,577.745,1081.274,577.861Z" transform="translate(-1034.755 -543.723)" fill="#484848" stroke="#fff" stroke-width="0.7"/>
      <path id="Path_105" data-name="Path 105" d="M858.246,422.524a4.328,4.328,0,0,1-.542.711c-.471.4-.972.76-1.469,1.126a.8.8,0,0,1-1.2-.065.811.811,0,0,1,.239-1.178,17.509,17.509,0,0,1,1.566-1.161,1.083,1.083,0,0,1,.831-.08C857.89,421.956,858.026,422.261,858.246,422.524Z" transform="translate(-846.433 -416.35)" fill="#484848" stroke="#fff" stroke-width="0.7"/>
      <path id="Path_106" data-name="Path 106" d="M1065.086,610.758c-.7-.012-1.076-.585-.8-1.1.36-.675.771-1.326,1.2-1.963a.764.764,0,0,1,1.306.777,21.569,21.569,0,0,1-1.228,2C1065.45,610.639,1065.184,610.7,1065.086,610.758Z" transform="translate(-1021.315 -571.363)" fill="#484848" stroke="#fff" stroke-width="0.7"/>
      <path id="Path_107" data-name="Path 107" d="M1085.976,505.675c-.006.538-.209.832-.619.916a.7.7,0,0,1-.875-.5,21.688,21.688,0,0,1-.488-2.253.7.7,0,0,1,.588-.817.683.683,0,0,1,.885.467C1085.683,504.244,1085.826,505.018,1085.976,505.675Z" transform="translate(-1037.847 -484.162)" fill="#484848" stroke="#fff" stroke-width="0.7"/>
      <path id="Path_108" data-name="Path 108" d="M978.576,676.348c-.52-.038-.8-.218-.892-.613a.676.676,0,0,1,.42-.866,23.757,23.757,0,0,1,2.32-.63.754.754,0,0,1,.43,1.407C980.074,675.933,979.263,676.141,978.576,676.348Z" transform="translate(-949.014 -627.217)" fill="#484848" stroke="#fff" stroke-width="0.7"/>
    </g>
  </g>
</svg>
