<svg xmlns="http://www.w3.org/2000/svg" width="52.459" height="37.863" viewBox="0 0 52.459 37.863">
  <g id="Group_41" data-name="Group 41" transform="translate(0.5 0.5)">
    <path id="Path_16" data-name="Path 16" d="M819.459,456.565a1.239,1.239,0,0,1-1.223.6c-1.32-.026-2.641-.009-3.891-.009a17.136,17.136,0,0,1-.793,1.786,5.123,5.123,0,0,1-9.338-1.312c-.115-.388-.26-.483-.64-.482q-8.991.018-17.982,0c-.386,0-.533.1-.634.488a5.136,5.136,0,0,1-9.921-.023c-.038-.143-.083-.285-.134-.456-1.9,0-3.791-.014-5.681.009a1.246,1.246,0,0,1-1.223-.6V428.522a1.313,1.313,0,0,1,1.2-.536q15.954.017,31.908.009c.95,0,1.185.236,1.186,1.186,0,1.572,0,3.143,0,4.769.231.012.424.031.617.031,2.529,0,5.059.013,7.588-.007a1.39,1.39,0,0,1,1.316.72q3.8,5.971,7.642,11.919Zm-49.711-26.835v22.3h4.231v1.7h-4.227v1.688h5.14c1.007-2.843,2.592-4.207,4.951-4.271a5.05,5.05,0,0,1,2.951.823,5.257,5.257,0,0,1,2.3,3.435h15.449v-1.692H786.035v-1.707h14.513V433.132H771.463V431.41h29.083v-1.681Zm32.621,5.973v19.712h1.673c1.213-2.979,2.621-4.25,4.942-4.253,2.873,0,4.565,1.574,5.3,4.243h3.438v-1.686H815.19v-1.708h2.557v-.553q0-1.935,0-3.869c0-.72-.019-.739-.726-.74q-5.929,0-11.858,0c-.875,0-1.145-.269-1.147-1.14q-.005-3.567,0-7.135c0-.872.274-1.146,1.141-1.148q2.864-.006,5.728,0h.626c-.324-.509-.6-.906-.836-1.325a.717.717,0,0,0-.72-.4c-2.361.016-4.723.009-7.085.009Zm3.4,3.441V445.1h10.639a1.584,1.584,0,0,0-.09-.211c-1.174-1.829-2.341-3.663-3.536-5.478a.785.785,0,0,0-.573-.26c-1.773-.02-3.547-.012-5.321-.012Zm3.42,20.567a3.427,3.427,0,1,0-3.449-3.386A3.436,3.436,0,0,0,809.19,459.71Zm-29.189,0a3.427,3.427,0,1,0-3.429-3.415A3.431,3.431,0,0,0,780,459.71Z" transform="translate(-768 -424.599)" fill="#484848" stroke="#fff" stroke-width="1"/>
    <path id="Path_17" data-name="Path 17" d="M768,402.737h1.675v1.709H768Z" transform="translate(-768 -402.733)" fill="#484848" stroke="#fff" stroke-width="1"/>
    <path id="Path_18" data-name="Path 18" d="M793.709,404.389v-1.68h12c0,.479.022.945-.017,1.406-.008.1-.228.253-.358.26-.517.03-1.037.013-1.556.013H793.709Z" transform="translate(-790.264 -402.709)" fill="#484848" stroke="#fff" stroke-width="1"/>
    <path id="Path_24" data-name="Path 24" d="M1068.866,634.811v-1.629h1.664v1.629Z" transform="translate(-1028.547 -602.297)" fill="#484848" stroke="#fff" stroke-width="1"/>
    <path id="Path_25" data-name="Path 25" d="M851.506,633.035h1.647v1.649h-1.647Z" transform="translate(-840.315 -602.169)" fill="#484848" stroke="#fff" stroke-width="1"/>
  </g>
</svg>
