<svg xmlns="http://www.w3.org/2000/svg" width="48.633" height="52.787" viewBox="0 0 48.633 52.787">
  <g id="Group_36" data-name="Group 36" transform="translate(-770.299 -347.65)">
    <g id="Group_36-2" data-name="Group 36" transform="translate(770.647 348)">
      <path id="Path_70" data-name="Path 70" d="M813.541,511.282a4.8,4.8,0,0,1-1.98-1.182,9.271,9.271,0,0,0-4.539-2.079c-.034.151-.063.277-.09.4a1.641,1.641,0,0,1-1.585,1.331q-4.349.019-8.7,0a1.653,1.653,0,0,1-1.613-1.747c-.012-1.526,0-3.052,0-4.578q0-6.053,0-12.106a1.757,1.757,0,0,1,1.993-2h7.732c1.442,0,1.87.312,2.283,1.709.462-.421.882-.855,1.353-1.224,1.115-.875,2.273-1.7,3.38-2.582a7.826,7.826,0,0,0,2.979-5.1,14.144,14.144,0,0,0,.188-2.685,2.963,2.963,0,0,1,2.425-2.741,3.151,3.151,0,0,1,3.6,2.05,13.954,13.954,0,0,1,.048,9.8c-.055.155-.1.313-.18.541h9.85a3.4,3.4,0,0,1,1.677,6.508.353.353,0,0,0-.077.064,3.557,3.557,0,0,1-1.239,5.023,3.42,3.42,0,0,1,.6,2.731,3.748,3.748,0,0,1-1.636,2.266,9.686,9.686,0,0,1,.6,1.545,3.346,3.346,0,0,1-2.453,3.947,2.867,2.867,0,0,0-.275.107Zm7.148-1.628h1.424c1.729,0,3.458.01,5.187-.005a1.751,1.751,0,0,0,.588-3.4,5.9,5.9,0,0,0-.7-.131.8.8,0,0,1,.149-1.594,6.066,6.066,0,0,1,.708.071,2.061,2.061,0,0,0,2.034-1.639,1.746,1.746,0,0,0-1.332-1.9c-.163-.04-.337-.033-.5-.063a.8.8,0,0,1-.705-.853.777.777,0,0,1,.8-.752c.251,0,.5.06.754.077a2.1,2.1,0,0,0,.649,0,2.071,2.071,0,0,0,1.477-2.067,1.8,1.8,0,0,0-1.9-1.547c-.407-.007-.815.015-1.219-.022a.717.717,0,0,1-.673-.711.734.734,0,0,1,.533-.824,1.851,1.851,0,0,1,.55-.068c.864-.008,1.73.014,2.593-.012a1.745,1.745,0,1,0-.155-3.486q-5.492-.008-10.984,0a2.894,2.894,0,0,1-.557-.026.8.8,0,0,1-.609-1.117c.065-.174.156-.337.234-.507a12.252,12.252,0,0,0,.4-9.725,1.785,1.785,0,0,0-.63-.817,1.4,1.4,0,0,0-2.227,1.12c-.032.507-.084,1.014-.1,1.521a9.563,9.563,0,0,1-3.618,7.269c-.41.342-.958.52-1.36.869-1.458,1.266-2.886,2.567-4.308,3.874a.866.866,0,0,0-.207.582c-.012,4.034-.005,8.069-.016,12.1,0,.347.081.5.45.571a11.412,11.412,0,0,1,5.667,2.793,1.861,1.861,0,0,0,1.148.407C816.383,509.675,818.536,509.655,820.689,509.655ZM796.7,490.98V508.1h8.614V490.98Z" transform="translate(-793.44 -459.196)" fill="#484848" stroke="#fff" stroke-width="0.7"/>
      <path id="Path_71" data-name="Path 71" d="M898.864,348a5.455,5.455,0,0,1,.59.851c.683,1.529,1.344,3.068,2,4.61a.634.634,0,0,0,.622.455c1.772.142,3.541.326,5.311.493a.822.822,0,0,1,.784.612.858.858,0,0,1-.366.931c-1.31,1.153-2.615,2.312-3.933,3.455a.634.634,0,0,0-.25.731c.391,1.628.742,3.266,1.106,4.9.022.1.033.2.059.3a.711.711,0,0,1-.33.919,1.221,1.221,0,0,1-.935-.023c-1.434-.8-2.854-1.625-4.24-2.505a1.155,1.155,0,0,0-1.441.006c-1.343.851-2.732,1.63-4.1,2.445a.927.927,0,0,1-1.087.1.917.917,0,0,1-.3-1.091c.382-1.683.741-3.371,1.142-5.049a.634.634,0,0,0-.251-.731c-1.292-1.122-2.569-2.261-3.855-3.389-.321-.281-.593-.572-.426-1.044s.536-.541.971-.579c1.738-.152,3.472-.336,5.21-.484a.53.53,0,0,0,.5-.4c.665-1.555,1.329-3.111,2.02-4.655a5.483,5.483,0,0,1,.589-.852Zm3.939,15.941c-.324-1.463-.6-2.787-.917-4.1a1.086,1.086,0,0,1,.4-1.207c.9-.772,1.785-1.564,2.674-2.349.131-.115.253-.24.443-.42-1.49-.146-2.868-.291-4.248-.409a1,1,0,0,1-.909-.684c-.474-1.122-.965-2.237-1.451-3.354-.063-.145-.139-.284-.25-.508a34.791,34.791,0,0,0-1.366,3.2,1.889,1.889,0,0,1-2.064,1.439c-1.1.021-2.2.2-3.414.314.247.223.406.369.568.512.852.751,1.7,1.509,2.559,2.248a1.058,1.058,0,0,1,.4,1.206c-.168.584-.276,1.186-.407,1.782-.161.735-.318,1.47-.5,2.323,1.234-.729,2.368-1.367,3.466-2.062a1.284,1.284,0,0,1,1.543,0C900.433,362.567,901.565,363.208,902.8,363.941Z" transform="translate(-874.592 -348)" fill="#484848" stroke="#fff" stroke-width="0.7"/>
      <path id="Path_72" data-name="Path 72" d="M1032.571,408.969c.214-.965.393-2.039.7-3.075a1.327,1.327,0,0,0-.541-1.674c-.786-.585-1.483-1.289-2.226-1.933a.856.856,0,0,1-.348-.981.866.866,0,0,1,.871-.567c1.131-.093,2.26-.218,3.392-.31a.755.755,0,0,0,.747-.533c.416-1.054.891-2.085,1.335-3.129.164-.385.394-.687.852-.678a.893.893,0,0,1,.811.663c.457,1.075.932,2.142,1.378,3.221a.624.624,0,0,0,.594.439c1.182.1,2.361.227,3.543.329a.835.835,0,0,1,.5,1.534c-.88.77-1.747,1.556-2.639,2.313a.683.683,0,0,0-.247.789c.266,1.085.5,2.178.745,3.268.092.411.141.817-.255,1.111a.925.925,0,0,1-1.129-.08c-.973-.585-1.958-1.147-2.924-1.744a.634.634,0,0,0-.776-.009c-1.022.633-2.059,1.242-3.1,1.84A.817.817,0,0,1,1032.571,408.969Zm2.01-1.523c.682-.4,1.264-.687,1.779-1.063a1.459,1.459,0,0,1,1.936-.014c.527.384,1.122.676,1.792,1.071-.187-.853-.33-1.6-.518-2.329a1.137,1.137,0,0,1,.4-1.3c.6-.486,1.162-1.015,1.825-1.6-.835-.082-1.551-.191-2.269-.213a1.26,1.26,0,0,1-1.288-.924c-.251-.69-.578-1.352-.906-2.1-.334.769-.661,1.439-.918,2.135a1.233,1.233,0,0,1-1.256.892c-.728.027-1.454.134-2.28.216.663.585,1.218,1.107,1.808,1.586a1.146,1.146,0,0,1,.419,1.3C1034.923,405.829,1034.775,406.572,1034.58,407.445Z" transform="translate(-996.632 -389.567)" fill="#484848" stroke="#fff" stroke-width="0.7"/>
      <path id="Path_73" data-name="Path 73" d="M786.693,409.917a.822.822,0,0,1-.889-1.061c.238-1.161.491-2.319.775-3.469a.716.716,0,0,0-.278-.827c-.866-.734-1.706-1.5-2.563-2.245a.846.846,0,0,1,.5-1.577c1.131-.093,2.26-.219,3.391-.309a.755.755,0,0,0,.743-.539c.418-1.054.891-2.085,1.336-3.128.165-.386.4-.684.855-.672a.9.9,0,0,1,.807.668c.451,1.059.927,2.108,1.357,3.175a.689.689,0,0,0,.669.488c1.148.1,2.294.222,3.442.317a.874.874,0,0,1,.878.56.886.886,0,0,1-.376,1.019c-.845.733-1.672,1.487-2.526,2.209a.781.781,0,0,0-.3.911c.276,1.065.494,2.144.734,3.218.092.412.136.818-.264,1.108s-.763.131-1.13-.09c-.987-.594-1.985-1.169-2.967-1.77a.572.572,0,0,0-.688,0c-1,.61-2.005,1.2-3.014,1.79A4.3,4.3,0,0,1,786.693,409.917Zm3.845-10.956c-.342.788-.676,1.49-.953,2.213a1.161,1.161,0,0,1-1.152.811c-.749.04-1.5.137-2.35.219.643.568,1.179,1.083,1.758,1.542a1.213,1.213,0,0,1,.449,1.429c-.2.706-.32,1.433-.5,2.259a16.44,16.44,0,0,0,1.715-1.019,1.552,1.552,0,0,1,2.11.023,19.258,19.258,0,0,0,1.675.995,18.4,18.4,0,0,0-.423-1.858,1.619,1.619,0,0,1,.669-2.1A16.573,16.573,0,0,0,795,402.2c-.892-.084-1.649-.173-2.408-.22a1.113,1.113,0,0,1-1.084-.755C791.22,400.488,790.887,399.767,790.538,398.961Z" transform="translate(-783.308 -389.567)" fill="#484848" stroke="#fff" stroke-width="0.7"/>
      <path id="Path_79" data-name="Path 79" d="M840.358,596.76a.792.792,0,0,1-.8.853.812.812,0,0,1-.82-.844.821.821,0,0,1,.811-.858A.8.8,0,0,1,840.358,596.76Z" transform="translate(-831.22 -562.284)" fill="#484848" stroke="#fff" stroke-width="0.7"/>
    </g>
  </g>
</svg>
