<svg xmlns="http://www.w3.org/2000/svg" width="21.242" height="21.242" viewBox="0 0 21.242 21.242">
  <g id="Icon_feather-instagram" data-name="Icon feather-instagram" transform="translate(-2 -2)">
    <path id="Path_6" data-name="Path 6" d="M7.811,3h9.621a4.811,4.811,0,0,1,4.811,4.811v9.621a4.811,4.811,0,0,1-4.811,4.811H7.811A4.811,4.811,0,0,1,3,17.432V7.811A4.811,4.811,0,0,1,7.811,3Z" fill="none" stroke="#fff" stroke-linecap="round" stroke-linejoin="round" stroke-width="2"/>
    <path id="Path_7" data-name="Path 7" d="M19.72,15.219a3.848,3.848,0,1,1-3.242-3.242,3.848,3.848,0,0,1,3.242,3.242Z" transform="translate(-3.251 -3.204)" fill="none" stroke="#fff" stroke-linecap="round" stroke-linejoin="round" stroke-width="2"/>
    <path id="Path_8" data-name="Path 8" d="M26.25,9.75h0" transform="translate(-8.337 -2.421)" fill="none" stroke="#fff" stroke-linecap="round" stroke-linejoin="round" stroke-width="2"/>
  </g>
</svg>
