<svg xmlns="http://www.w3.org/2000/svg" width="19.243" height="19.243" viewBox="0 0 19.243 19.243">
  <path id="Icon_awesome-linkedin-in" data-name="Icon awesome-linkedin-in" d="M4.307,19.243H.318V6.4H4.307Zm-2-14.6a2.321,2.321,0,1,1,2.31-2.332A2.33,2.33,0,0,1,2.31,4.643Zm16.928,14.6H15.258V12.989c0-1.49-.03-3.4-2.074-3.4-2.074,0-2.392,1.619-2.392,3.294v6.361H6.806V6.4h3.826V8.148h.056a4.192,4.192,0,0,1,3.775-2.075c4.038,0,4.78,2.659,4.78,6.112v7.057Z" transform="translate(0 0)" fill="#fff"/>
</svg>
