<svg xmlns="http://www.w3.org/2000/svg" width="32.354" height="32.354" viewBox="0 0 32.354 32.354">
  <g id="Group_32" data-name="Group 32" transform="translate(-768 -348)">
    <g id="Group_31" data-name="Group 31" transform="translate(768 348)">
      <path id="Path_61" data-name="Path 61" d="M781.649,348q3.073,1.538,6.145,3.076,3.386,1.691,6.773,3.378a.711.711,0,0,1,.409.691q-.005,2.733-.01,5.466c0,.053,0,.105,0,.158a.675.675,0,0,1-.693.7.664.664,0,0,1-.66-.7c-.014-.463,0-.927,0-1.39q0-1.406,0-2.812v-.379c-.14.063-.234.1-.324.147q-5.7,2.85-11.4,5.7a.853.853,0,0,1-.836-.008q-2.646-1.338-5.3-2.659c-.081-.041-.167-.071-.285-.12,0,.453,0,.872,0,1.29,0,.864.005,1.727,0,2.591a.644.644,0,0,1-.67.682.653.653,0,0,1-.664-.692c-.006-1.39-.011-2.78,0-4.17a.533.533,0,0,0-.342-.575c-1.372-.665-2.73-1.357-4.094-2.038-.1-.05-.2-.094-.336-.156-.007.148-.017.25-.017.351q0,5.15-.006,10.3a.454.454,0,0,0,.272.465q5.66,3.134,11.31,6.283a2.739,2.739,0,0,1,.245.143.671.671,0,0,1,.218.892.679.679,0,0,1-.876.275c-.077-.033-.149-.078-.222-.119q-5.874-3.267-11.746-6.539a3.59,3.59,0,0,1-.538-.456V354.825a2.306,2.306,0,0,1,.436-.381q4.955-2.491,9.918-4.965c.974-.488,1.944-.986,2.916-1.479Zm-5.332,10.136c.127.068.209.115.293.157,1.523.762,3.048,1.519,4.566,2.291a.6.6,0,0,0,.612,0q5.325-2.678,10.659-5.339c.09-.045.176-.1.3-.169-.122-.069-.207-.123-.3-.168-1.523-.762-3.049-1.52-4.568-2.289a.54.54,0,0,0-.551,0q-4.155,2.092-8.318,4.168Zm9.773-6.4c-1.535-.766-3-1.5-4.473-2.222a.49.49,0,0,0-.372.038q-5.391,2.687-10.774,5.388c-.077.039-.149.087-.262.154,1.462.731,2.873,1.432,4.278,2.146a.6.6,0,0,0,.612.006q4.323-2.177,8.655-4.334C784.514,352.528,785.271,352.145,786.091,351.733Z" transform="translate(-768 -348)" fill="#fff"/>
      <path id="Path_62" data-name="Path 62" d="M952.214,541.394c-.605-.126-1.221-.214-1.815-.383a8.757,8.757,0,1,1,11.169-9.84c.038.248.083.5.125.744v1.453a1.8,1.8,0,0,0-.055.208,8.618,8.618,0,0,1-6.011,7.375,15.914,15.914,0,0,1-1.959.442Zm8.129-8.569a7.417,7.417,0,1,0-7.607,7.22A7.445,7.445,0,0,0,960.343,532.825Z" transform="translate(-929.338 -509.041)" fill="#fff"/>
      <path id="Path_68" data-name="Path 68" d="M995.305,593.069l2.135-2.437c.707-.807,1.41-1.618,2.123-2.42a.647.647,0,0,1,.826-.173.637.637,0,0,1,.342.714,1,1,0,0,1-.218.408q-2.269,2.607-4.549,5.2a.7.7,0,0,1-1.181.036c-.835-.831-1.665-1.668-2.5-2.5-.2-.2-.36-.43-.255-.7a1.01,1.01,0,0,1,.427-.493.6.6,0,0,1,.718.171c.5.5,1,.994,1.495,1.5C994.878,592.6,995.079,592.825,995.305,593.069Z" transform="translate(-973.12 -567.741)" fill="#fff"/>
    </g>
  </g>
</svg>
