<svg xmlns="http://www.w3.org/2000/svg" width="42.017" height="32.214" viewBox="0 0 42.017 32.214">
  <g id="Group_29" data-name="Group 29" transform="translate(-779.989 -401.982)">
    <g id="Group_28" data-name="Group 28" transform="translate(779.989 401.982)">
      <path id="Path_44" data-name="Path 44" d="M780.171,497.773v-1.386h10.542a5.3,5.3,0,0,1-1.408-2.816c-.458,0-.907,0-1.356,0a2.1,2.1,0,0,1-2.2-2.2c-.005-1.94,0-3.881,0-5.821v-.358h1.4c0,.156,0,.31,0,.463q0,2.8,0,5.6c0,.684.233.913.922.916.405,0,.811,0,1.2,0,.731-2.713,2.5-4.212,4.915-4.2a4.927,4.927,0,0,1,4.822,4.176h9.893a4.907,4.907,0,0,1,2.007-3.26,4.833,4.833,0,0,1,3.086-.91,4.95,4.95,0,0,1,4.612,4.184c.509,0,1.033.036,1.549-.012a.657.657,0,0,0,.6-.74c0-1.823,0-3.647,0-5.541H810.486a1.441,1.441,0,0,1-1.629-1.644q0-2.933,0-5.865a1.421,1.421,0,0,1,1.588-1.595c.97,0,1.94,0,3.034,0-.478-.469-.859-.864-1.267-1.228a.779.779,0,0,0-.479-.166c-2.3-.01-4.609-.006-6.914,0a.8.8,0,0,0-.152.036v10.434H803.26V475.372h-3.475v-1.41h.47c3.763,0,7.526.007,11.29-.006a2.488,2.488,0,0,1,1.877.77q4.15,4.174,8.324,8.325a1.3,1.3,0,0,1,.422,1c-.015,2.407-.006,4.815-.008,7.222a2.114,2.114,0,0,1-2.281,2.3c-.42,0-.841,0-1.262,0a4.807,4.807,0,0,1-2.954,3.786,5.306,5.306,0,0,1-1.949.4q-16.606.036-33.213.017Zm40.687-13.328a2.828,2.828,0,0,0-.341-.618q-2.694-2.72-5.416-5.412a.955.955,0,0,0-.6-.241c-1.283-.022-2.566-.012-3.849-.01-.125,0-.25.016-.373.024v6.256Zm-26.709,4.924a3.5,3.5,0,1,0,3.5,3.508A3.5,3.5,0,0,0,794.149,489.37Zm19.611,0a3.5,3.5,0,1,0,3.5,3.47A3.5,3.5,0,0,0,813.76,489.37Zm-16.148,6.973H810.3a5.148,5.148,0,0,1-1.387-2.75H799A5.167,5.167,0,0,1,797.612,496.343Z" transform="translate(-780.15 -465.56)" fill="#fff"/>
      <path id="Path_45" data-name="Path 45" d="M798.19,411.142a9.1,9.1,0,1,1-9.174-9.16A9.114,9.114,0,0,1,798.19,411.142Zm-1.4-.088a7.7,7.7,0,1,0-7.726,7.73A7.708,7.708,0,0,0,796.79,411.055Z" transform="translate(-779.989 -401.982)" fill="#fff"/>
      <path id="Path_46" data-name="Path 46" d="M780.154,613.633v-1.347H783.6v1.347Z" transform="translate(-780.135 -587.753)" fill="#fff"/>
      <path id="Path_47" data-name="Path 47" d="M1011.1,588.317v1.336h-2.758v-1.336Z" transform="translate(-981.705 -566.58)" fill="#fff"/>
      <path id="Path_48" data-name="Path 48" d="M792.166,589.693v-1.344h2.051v1.344Z" transform="translate(-790.745 -566.608)" fill="#fff"/>
      <path id="Path_49" data-name="Path 49" d="M799.54,565.711H798.2v-1.346h1.345Z" transform="translate(-796.071 -545.421)" fill="#fff"/>
      <path id="Path_55" data-name="Path 55" d="M895.655,630.351v1.35h-1.346v-1.35Z" transform="translate(-880.973 -603.711)" fill="#fff"/>
      <path id="Path_56" data-name="Path 56" d="M1063.677,630.31v1.344h-1.351V630.31Z" transform="translate(-1029.39 -603.674)" fill="#fff"/>
      <path id="Path_57" data-name="Path 57" d="M821.047,425.991a4.86,4.86,0,0,1,4.535,6.7,16.861,16.861,0,0,1-3.231,4.85c-.251.284-.5.569-.779.828a.663.663,0,0,1-1.013,0,18.1,18.1,0,0,1-4.009-5.679A4.856,4.856,0,0,1,821.047,425.991Zm.023,10.9c.367-.433.708-.81,1.022-1.209a12.267,12.267,0,0,0,2.3-3.836,3.478,3.478,0,1,0-6.471.531A18.694,18.694,0,0,0,821.071,436.888Z" transform="translate(-811.965 -423.19)" fill="#fff"/>
      <path id="Path_59" data-name="Path 59" d="M844.223,452.146a2.1,2.1,0,1,1-2.092-2.127A2.106,2.106,0,0,1,844.223,452.146Zm-2.1-.727a.7.7,0,1,0,.695.69A.7.7,0,0,0,842.127,451.418Z" transform="translate(-833.023 -444.415)" fill="#fff"/>
    </g>
  </g>
</svg>
