<svg xmlns="http://www.w3.org/2000/svg" width="23.691" height="19.242" viewBox="0 0 23.691 19.242">
  <path id="Icon_awesome-twitter" data-name="Icon awesome-twitter" d="M21.256,8.176c.015.21.015.421.015.631A13.72,13.72,0,0,1,7.456,22.623,13.721,13.721,0,0,1,0,20.443a10.045,10.045,0,0,0,1.173.06A9.724,9.724,0,0,0,7.2,18.429a4.864,4.864,0,0,1-4.54-3.367,6.123,6.123,0,0,0,.917.075,5.135,5.135,0,0,0,1.278-.165A4.856,4.856,0,0,1,.962,10.206v-.06a4.89,4.89,0,0,0,2.195.616,4.863,4.863,0,0,1-1.5-6.494A13.8,13.8,0,0,0,11.665,9.349a5.481,5.481,0,0,1-.12-1.112,4.86,4.86,0,0,1,8.4-3.322A9.56,9.56,0,0,0,23.03,3.742,4.842,4.842,0,0,1,20.9,6.417a9.734,9.734,0,0,0,2.8-.752,10.438,10.438,0,0,1-2.435,2.51Z" transform="translate(0 -3.381)" fill="#fff"/>
</svg>
