<svg xmlns="http://www.w3.org/2000/svg" width="21.506" height="15.121" viewBox="0 0 21.506 15.121">
  <path id="Icon_awesome-youtube" data-name="Icon awesome-youtube" d="M22.106,6.866a2.7,2.7,0,0,0-1.9-1.914C18.528,4.5,11.8,4.5,11.8,4.5s-6.725,0-8.4.452A2.7,2.7,0,0,0,1.5,6.866a28.347,28.347,0,0,0-.449,5.21,28.347,28.347,0,0,0,.449,5.21,2.662,2.662,0,0,0,1.9,1.883c1.677.452,8.4.452,8.4.452s6.725,0,8.4-.452a2.662,2.662,0,0,0,1.9-1.883,28.347,28.347,0,0,0,.449-5.21,28.347,28.347,0,0,0-.449-5.21ZM9.6,15.273v-6.4l5.621,3.2L9.6,15.273Z" transform="translate(-1.05 -4.5)" fill="#fff"/>
</svg>
